{"asset":{"generator":"3D Builder","version":"2.0"},"scene":0,"scenes":[{"nodes":[0,1,2,3]}],"nodes":[{"mesh":0,"matrix":[-0.0010674716904759407,-0.010488200001418591,-0.00095058372244238853,0,0.010342899709939957,5.6017057659119018E-7,-0.011614397168159485,0,0.011116500943899155,-0.00202811136841774,0.00989849865436554,0,-0.00538297975435853,0.0011059993412345648,-0.0043777893297374249,1]},{"mesh":1,"matrix":[-0.0010674716904759407,-0.010488200001418591,-0.00095058372244238853,0,0.010342899709939957,5.6017057659119018E-7,-0.011614397168159485,0,0.011116500943899155,-0.00202811136841774,0.00989849865436554,0,-0.00538297975435853,0.0011059993412345648,-0.0043777893297374249,1]},{"mesh":2,"matrix":[-5.9643902204697952E-5,-0.00058601691853255033,-5.311292625265196E-5,0,0.0003933209809474647,2.6090418714375119E-8,-0.00044167591840960085,0,0.00043765798909589648,-7.9838355304673314E-5,0.00038970590685494244,0,-0.0053806300275027752,0.0010501494398340583,-0.0043912194669246674,1]},{"mesh":3,"matrix":[-5.9643902204697952E-5,-0.00058601691853255033,-5.311292625265196E-5,0,0.0003933209809474647,2.6090418714375119E-8,-0.00044167591840960085,0,0.00043765798909589648,-7.9838355304673314E-5,0.00038970590685494244,0,-0.0053806300275027752,0.0010501494398340583,-0.0043912194669246674,1]}],"meshes":[{"primitives":[{"attributes":{"POSITION":0,"TEXCOORD_0":1},"mode":4,"indices":2,"material":0}]},{"primitives":[{"attributes":{"POSITION":3,"TEXCOORD_0":4},"mode":4,"indices":5,"material":1}]},{"primitives":[{"attributes":{"POSITION":6,"TEXCOORD_0":7},"mode":4,"indices":8,"material":2}]},{"primitives":[{"attributes":{"POSITION":9,"TEXCOORD_0":10},"mode":4,"indices":11,"material":3}]}],"materials":[{"pbrMetallicRoughness":{"baseColorFactor":[1,1,1,1],"metallicFactor":0,"roughnessFactor":1,"baseColorTexture":{"index":0,"texCoord":0}},"alphaMode":"OPAQUE"},{"pbrMetallicRoughness":{"baseColorFactor":[1,1,1,1],"metallicFactor":0,"roughnessFactor":1,"baseColorTexture":{"index":1,"texCoord":0}},"alphaMode":"OPAQUE"},{"pbrMetallicRoughness":{"baseColorFactor":[1,1,1,1],"metallicFactor":0,"roughnessFactor":1,"baseColorTexture":{"index":2,"texCoord":0}},"alphaMode":"OPAQUE"},{"pbrMetallicRoughness":{"baseColorFactor":[1,1,1,1],"metallicFactor":0,"roughnessFactor":1,"baseColorTexture":{"index":3,"texCoord":0}},"alphaMode":"OPAQUE"}],"textures":[{"source":0,"sampler":0},{"source":1,"sampler":0},{"source":2,"sampler":0},{"source":3,"sampler":0}],"images":[{"uri":"985.png"},{"uri":"994.png"},{"uri":"1004.png"},{"uri":"1013.png"}],"samplers":[{"magFilter":9729,"wrapS":10497,"wrapT":10497}],"accessors":[{"bufferView":0,"byteOffset":0,"count":157,"componentType":5126,"type":"VEC3","min":[-0.0060000000521540642,0.00053500005742535,0.46359002590179443],"max":[-0.0054680001921951771,0.0055780005641281605,0.467492014169693]},{"bufferView":1,"byteOffset":0,"count":157,"componentType":5126,"type":"VEC2"},{"bufferView":2,"byteOffset":0,"count":435,"componentType":5125,"type":"SCALAR"},{"bufferView":3,"byteOffset":0,"count":20706,"componentType":5126,"type":"VEC3","min":[-0.0060000000521540642,-0.0075760004110634327,0.45767500996589661],"max":[0.024281000718474388,0.012326001189649105,0.47708001732826233]},{"bufferView":4,"byteOffset":0,"count":20706,"componentType":5126,"type":"VEC2"},{"bufferView":5,"byteOffset":0,"count":69183,"componentType":5125,"type":"SCALAR"},{"bufferView":6,"byteOffset":0,"count":147,"componentType":5126,"type":"VEC3","min":[-0.15240101516246796,0.013596000149846077,11.775200843811035],"max":[-0.13889701664447784,0.1417040079832077,11.874300003051758]},{"bufferView":7,"byteOffset":0,"count":147,"componentType":5126,"type":"VEC2"},{"bufferView":8,"byteOffset":0,"count":435,"componentType":5125,"type":"SCALAR"},{"bufferView":9,"byteOffset":0,"count":8778,"componentType":5126,"type":"VEC3","min":[-0.47520902752876282,-0.015697000548243523,11.684500694274902],"max":[-0.13889701664447784,0.20508001744747162,11.87700080871582]},{"bufferView":10,"byteOffset":0,"count":8778,"componentType":5126,"type":"VEC2"},{"bufferView":11,"byteOffset":0,"count":28245,"componentType":5125,"type":"SCALAR"}],"bufferViews":[{"buffer":0,"byteOffset":0,"byteLength":1884,"byteStride":12,"target":34962},{"buffer":0,"byteOffset":1884,"byteLength":1256,"byteStride":8,"target":34962},{"buffer":0,"byteOffset":3140,"byteLength":1740,"target":34963},{"buffer":0,"byteOffset":4880,"byteLength":248472,"byteStride":12,"target":34962},{"buffer":0,"byteOffset":253352,"byteLength":165648,"byteStride":8,"target":34962},{"buffer":0,"byteOffset":419000,"byteLength":276732,"target":34963},{"buffer":0,"byteOffset":695732,"byteLength":1764,"byteStride":12,"target":34962},{"buffer":0,"byteOffset":697496,"byteLength":1176,"byteStride":8,"target":34962},{"buffer":0,"byteOffset":698672,"byteLength":1740,"target":34963},{"buffer":0,"byteOffset":700412,"byteLength":105336,"byteStride":12,"target":34962},{"buffer":0,"byteOffset":805748,"byteLength":70224,"byteStride":8,"target":34962},{"buffer":0,"byteOffset":875972,"byteLength":112980,"target":34963}],"buffers":[{"byteLength":988952,"uri":"BrownShort_1.bin"}]}